<svg xmlns="http://www.w3.org/2000/svg" width="131" height="76" viewBox="0 0 131 76">
    <g fill="none" fill-rule="evenodd">
        <g>
            <g>
                <g>
                    <g>
                        <g>
                            <g fill="#000" fill-rule="nonzero" stroke="#FFF" stroke-width=".8">
                                <g>
                                    <path d="M42.507 0H5.734c-1.42 0-2.63 1.156-2.63 2.628v6.148H1.526C.684 8.776 0 9.46 0 10.3s.684 1.524 1.526 1.524h1.578v6.727H1.526c-.842 0-1.526.683-1.526 1.524 0 .84.684 1.524 1.526 1.524h1.578v6.727H1.526C.684 28.326 0 29.009 0 29.85c0 .84.684 1.524 1.526 1.524h1.578V38.1H1.526C.684 38.1 0 38.784 0 39.624c0 .841.684 1.524 1.526 1.524h1.578v6.149c0 1.419 1.157 2.628 2.63 2.628h36.773c1.42 0 2.63-1.156 2.63-2.628V2.627c0-1.47-1.21-2.627-2.63-2.627zm-.42 46.877H6.154V41.2h1.578c.842 0 1.526-.683 1.526-1.524 0-.84-.684-1.524-1.526-1.524H6.155v-6.78h1.578c.842 0 1.526-.682 1.526-1.523 0-.841-.684-1.524-1.526-1.524H6.155v-6.727h1.578c.842 0 1.526-.683 1.526-1.524 0-.84-.684-1.524-1.526-1.524H6.155v-6.78h1.578c.842 0 1.526-.682 1.526-1.523 0-.841-.684-1.524-1.526-1.524H6.155V3.048h35.879v43.829h.052z" transform="translate(-504 -3257) translate(0 2766) translate(135 462) translate(300) translate(70.506 29.915) rotate(-20 43.776 7.719)"/>
                                    <path d="M32.88 25.803H16.57c-.841 0-1.525.683-1.525 1.524s.684 1.524 1.525 1.524H32.88c.842 0 1.525-.683 1.525-1.524 0-.84-.683-1.524-1.525-1.524zM29.565 32.11h-9.68c-.841 0-1.525.683-1.525 1.523 0 .841.684 1.524 1.526 1.524h9.68c.841 0 1.525-.683 1.525-1.524 0-.84-.684-1.524-1.526-1.524zM16.15 21.967h17.098c1.157 0 2.104-.946 2.104-2.102v-8.461c0-1.156-.947-2.102-2.104-2.102H16.151c-1.158 0-2.105.946-2.105 2.102v8.46c0 1.157.947 2.103 2.105 2.103zm.947-9.617h15.257v6.621H17.097V12.35h0z" transform="translate(-504 -3257) translate(0 2766) translate(135 462) translate(300) translate(70.506 29.915) rotate(-20 43.776 7.719)"/>
                                </g>
                            </g>
                            <g>
                                <g>
                                    <path d="M26.288 4.084c-.767.727-1.371 1.478-1.371 2.704 0 .463-.618 1.188-.968 1.394-1.6.94-3.056 1.45-4.414 2.821-.768.776-1.54 1.548-2.31 2.32L6.666 23.918c-.893.895-1.795 1.78-2.694 2.67-2.943 2.91-2.346 5.672.25 8.277 1.391 1.395 4.567 5.73 6.884 5.433 2.206-.284 3.528-2.068 4.96-3.506l9.49-9.52c3.152-3.163 5.662-5.694 7.908-9.541.788-1.35 2.023-.422 2.886-1.288.23-.23.694-.61 1.202-1.057L26.288 4.084z" transform="translate(-504 -3257) translate(0 2766) translate(135 462) translate(300) translate(70.506 29.915) translate(71.494 17.085) rotate(-45 35.006 14.5)"/>
                                    <path fill="#000" fill-rule="nonzero" d="M40.913 11.856c-.009-.05-.024-.1-.036-.15-.004-.112-.03-.227-.113-.346-.63-.906-.75-1.995-1.251-3.046-.138-.289-.29-.494-.437-.651-.085-.174-.176-.342-.277-.499-.103.013-.19.021-.269.026-.2-.184-.164-.339.434-.935l.803-.8c.096-.096.17-.168.23-.225.042.02.085.037.13.047.118.03.234.025.344-.004l.035-.008c.031-.01.06-.02.09-.034.239-.095.422-.298.413-.578l.002-.024c0-.007.002-.014.001-.022-.002-.02-.008-.04-.01-.06-.004-.042-.003-.083-.015-.126-.004-.015-.012-.03-.016-.044-.351-1.78-2.508-3.93-4.292-4.28-.015-.004-.03-.012-.044-.016-.044-.012-.085-.01-.128-.014-.02-.003-.04-.009-.06-.01-.007-.002-.014 0-.022 0l-.023.002c-.281-.009-.485.173-.58.412-.014.029-.024.059-.034.09l-.008.034c-.03.11-.034.226-.005.343.007.03.021.058.032.087-.028.04-.132.194-.521.583l-.054.054-1.218 1.214c.043-.043.067-.089.077-.137.172-.445-.588-.877-1.485-1.233-.818-.401-1.718-.724-1.984-.755-.155-.017-.3-.052-.44-.095-.623-.62-1.218-.745-1.781-.603-.339.014-.702.174-1.136.606-.067.067-.142.135-.212.202-.102.09-.202.183-.3.28-1.022.92-2.292 1.895-2.934 2.987-.736 1.253-.08 2.137-1.57 2.634-1.35.449-2.83 1.777-3.8 2.737-3.383 3.352-6.743 6.727-10.115 10.09-2.527 2.52-6.904 5.64-8.115 9.032-1.48 4.148 4.955 8.55 7.31 10.9 3.783 3.77 7.482-.484 10.129-3.123L29.66 24.429c1.287-1.283 2.454-2.545 3.613-3.958.549-.67 1.205-2.9 2.117-2.77.578.081 1.267-.287 1.675-.654.98-.884 2.81-2.203 3.553-3.65.298-.464.44-.965.295-1.541zm-4.677 4.034c-.862.86-2.095-.061-2.881 1.277-2.243 3.819-4.75 6.33-7.897 9.468l-9.475 9.45c-1.43 1.426-2.75 3.196-4.953 3.478-2.313.296-5.485-4.007-6.874-5.391-2.592-2.586-3.188-5.327-.25-8.216.897-.882 1.799-1.76 2.69-2.649l10.542-10.512c.77-.768 1.54-1.533 2.307-2.303 1.356-1.362 2.81-1.868 4.407-2.8.35-.205.967-.924.967-1.384 0-1.217.604-1.962 1.37-2.683l11.247 11.216c-.508.443-.97.82-1.2 1.049z" transform="translate(-504 -3257) translate(0 2766) translate(135 462) translate(300) translate(70.506 29.915) translate(71.494 17.085) rotate(-45 35.006 14.5)"/>
                                </g>
                            </g>
                            <path fill="#FFF" d="M39.452 20.732l11.388-1.647c2.359 1.352 4.134 2.463 5.327 3.334 1.192.87 2.968 2.352 5.327 4.444v31.222l-28-.74 5.958-36.613zM90.494 44.826l2.4-.74c.354.9.62 1.641.8 2.222.179.58.445 1.568.8 2.963v20.814h-4V44.826z" transform="translate(-504 -3257) translate(0 2766) translate(135 462) translate(300) translate(70.506 29.915)"/>
                            <g fill="#000" fill-rule="nonzero">
                                <g transform="translate(-504 -3257) translate(0 2766) translate(135 462) translate(300) translate(70.506 29.915) translate(32.494 12.085)">
                                    <ellipse cx="35.56" cy="24.505" rx="1.376" ry="1.353"/>
                                    <ellipse cx="35.56" cy="31.864" rx="1.376" ry="1.353"/>
                                    <ellipse cx="35.56" cy="39.223" rx="1.376" ry="1.353"/>
                                    <path d="M41.612 21.06c-.194.199-.298.467-.287.743l.484 11.896c.022.544.478.975 1.032.975h11.642c.302 0 .588-.13.785-.356.196-.225.282-.523.235-.817l-1.898-11.896c-.078-.494-.511-.858-1.02-.858H42.357c-.28 0-.55.113-.744.313zm10.09 1.718l1.574 9.865h-9.443l-.402-9.865h8.271z"/>
                                    <path d="M63.276 52.695c.545-.847.753-1.864.568-2.865l-.639-3.455c.599-.868.832-1.93.639-2.975L57.299 7.98c-.353-1.916-2.047-3.307-4.029-3.307h-4.915L44.923.386c-.002-.004-.006-.006-.01-.01-.01-.012-.022-.02-.032-.032-.05-.056-.106-.105-.167-.148-.021-.015-.042-.029-.065-.042-.064-.039-.13-.07-.201-.094-.015-.006-.03-.013-.044-.017-.075-.022-.152-.037-.23-.042l-.038.002L44.112 0H19.798c-.009 0-.016.003-.025.003l-.036-.002c-.08.005-.156.02-.23.042-.016.004-.03.012-.045.017-.07.024-.137.055-.201.094-.022.013-.044.027-.064.042-.062.044-.118.093-.17.15l-.03.03-.01.01-3.433 4.287H10.64c-1.981 0-3.675 1.39-4.03 3.307L.067 43.4c-.193 1.043.04 2.106.638 2.974l-.638 3.455c-.2 1.083.061 2.184.71 3.069l-.62 3.356c-.218 1.178.104 2.38.885 3.3C1.82 60.473 2.967 61 4.184 61h55.721c1.218 0 2.364-.527 3.143-1.446.78-.92 1.104-2.122.885-3.3l-.657-3.56zm-3.059-.193c-.131.026-.265.043-.402.043H4.095c-.146 0-.29-.017-.429-.046-.047-.01-.092-.03-.138-.042-.088-.025-.176-.05-.259-.087-.066-.03-.128-.068-.19-.105-.056-.032-.113-.061-.165-.098-.072-.05-.137-.111-.202-.172-.06-.055-.123-.103-.176-.166-.387-.456-.547-1.052-.44-1.636l.435-2.354.04.014c.1.04.202.076.306.108.038.012.078.022.117.033.09.024.18.048.27.067.067.013.134.022.201.032.069.01.136.024.206.03.14.016.282.024.425.024h55.72c.142 0 .284-.008.424-.023.07-.007.137-.02.206-.03.067-.01.134-.02.2-.033.092-.02.182-.044.272-.068.038-.01.077-.02.115-.032.106-.032.209-.07.311-.11l.034-.013.436 2.354c.107.584-.053 1.181-.44 1.637-.275.324-.646.544-1.052.648-.036.007-.068.019-.105.025zM55.27 8.342l6.545 35.42c.107.584-.053 1.18-.44 1.637l-.01.008c-.01.01-.022.017-.032.027-.195.218-.426.387-.68.502-.063.028-.13.044-.195.065-.069.023-.135.052-.206.068-.142.03-.288.047-.436.047H32.987V15.798l2.77 3.307c.192.23.479.366.783.37h.014c.299 0 .583-.127.78-.35L48.326 6.704h4.946c.98 0 1.82.69 1.996 1.64zm-23.314 3.191l-2.83-2.783-2.082-2.047h9.824l-4.912 4.83zm4.62 5.356l-3.228-3.854 4.764-4.684 5.909-5.81 2.494 3.115-9.94 11.233zM41.62 2.03l-2.689 2.644H24.978L22.29 2.03H41.62zm-21.73.511l3.93 3.865 6.742 6.63-3.227 3.854-9.94-11.233L19.89 2.54zM2.097 43.763l6.544-35.42c.176-.95 1.017-1.64 1.998-1.64h4.945l10.993 12.423c.162.184.37.295.62.333.052.008.104.017.159.017h.014c.304-.005.59-.14.783-.37l2.77-3.307v30.318H4.095c-.149 0-.295-.017-.436-.048-.065-.014-.126-.041-.188-.06-.072-.024-.146-.042-.214-.072-.254-.115-.485-.284-.68-.501-.007-.009-.017-.014-.026-.022l-.015-.014c-.387-.457-.546-1.053-.439-1.637zm59.366 14.49c-.387.456-.955.718-1.558.718H4.185c-.604 0-1.173-.262-1.56-.718-.386-.456-.547-1.052-.44-1.636l.429-2.312c.018.006.038.009.056.015.2.073.405.13.615.173.043.009.087.014.131.021.223.037.449.062.679.062h55.72c.25 0 .496-.028.738-.071.005-.001.012 0 .018-.002l.02-.005c.082-.015.164-.034.245-.054.215-.05.427-.11.63-.192l.437 2.364c.107.585-.053 1.181-.44 1.637z"/>
                                </g>
                            </g>
                        </g>
                    </g>
                </g>
            </g>
        </g>
    </g>
</svg>
