<svg xmlns="http://www.w3.org/2000/svg" width="59" height="55" viewBox="0 0 59 55">
    <g fill="none" fill-rule="evenodd">
        <g fill="#000" fill-rule="nonzero" stroke="#FFF" stroke-width=".9">
            <g>
                <g>
                    <g>
                        <path d="M52.547 2.695h-6.234v-.898C46.313.804 45.514 0 44.53 0S42.75.804 42.75 1.797v.898h-4.453v-.898C38.297.804 37.499 0 36.516 0c-.984 0-1.782.804-1.782 1.797v.898h-4.453v-.898C30.281.804 29.484 0 28.5 0c-.984 0-1.781.804-1.781 1.797v.898h-4.453v-.898C22.266.804 21.468 0 20.484 0c-.983 0-1.78.804-1.78 1.797v.898H14.25v-.898C14.25.804 13.453 0 12.469 0c-.984 0-1.781.804-1.781 1.797v.898H4.452C1.995 2.698.003 4.707 0 7.186v41.322c.003 2.48 1.995 4.49 4.453 4.492h48.094c2.458-.003 4.45-2.012 4.453-4.492V7.186c-.003-2.479-1.995-4.488-4.453-4.491zM3.563 18.865h49.874v22.457c0 .496-.399.898-.89.898H4.453c-.491 0-.89-.402-.89-.898V18.864zm.89-12.577h6.234v.898c0 .993.798 1.797 1.782 1.797s1.781-.804 1.781-1.797v-.898h4.453v.898c0 .993.798 1.797 1.781 1.797.984 0 1.782-.804 1.782-1.797v-.898h4.453v.898c0 .993.797 1.797 1.781 1.797.984 0 1.781-.804 1.781-1.797v-.898h4.453v.898c0 .993.798 1.797 1.782 1.797.983 0 1.78-.804 1.78-1.797v-.898h4.454v.898c0 .993.797 1.797 1.781 1.797.984 0 1.782-.804 1.782-1.797v-.898h6.234c.491 0 .89.403.89.898v8.085H3.563V7.186c0-.495.399-.897.89-.898zm48.094 43.119H4.453c-.491 0-.89-.403-.89-.899v-2.785c.293.06.591.09.89.09h48.094c.299 0 .597-.03.89-.09v2.785c0 .496-.399.898-.89.899h0z" transform="translate(-241 -3271) translate(0 2766) translate(135 462) translate(107 44)"/>
                        <path d="M24.965 38.265c.886.408 1.933.024 2.35-.864.418-.887.052-1.948-.822-2.382-1.608-.77-2.608-2.43-2.543-4.224.065-1.794 1.184-3.377 2.843-4.025 1.66-.648 3.543-.237 4.79 1.046.688.708 1.815.72 2.518.026.703-.694.714-1.832.026-2.54-2.242-2.308-5.63-3.048-8.618-1.882-2.987 1.165-5 4.013-5.118 7.241-.118 3.229 1.68 6.219 4.574 7.604h0z" transform="translate(-241 -3271) translate(0 2766) translate(135 462) translate(107 44)"/>
                        <path d="M30.576 29.72c-.699-.683-1.812-.674-2.5.02-.688.694-.696 1.817-.019 2.521l4.898 4.94c.334.338.787.527 1.26.527.472 0 .925-.19 1.26-.526l9.796-9.882c.678-.704.67-1.827-.018-2.522-.689-.694-1.802-.702-2.5-.018l-8.538 8.61-3.64-3.67zM8.708 36.78c.974-.014 1.756-.814 1.756-1.796 0-.982-.782-1.782-1.756-1.797-.973.015-1.755.815-1.755 1.797s.782 1.782 1.755 1.797zM8.708 28.796c.974-.015 1.756-.815 1.756-1.797s-.782-1.782-1.756-1.797c-.973.015-1.755.815-1.755 1.797s.782 1.782 1.755 1.797h0z" transform="translate(-241 -3271) translate(0 2766) translate(135 462) translate(107 44)"/>
                    </g>
                </g>
            </g>
        </g>
    </g>
</svg>
