<svg xmlns="http://www.w3.org/2000/svg" width="64" height="62" viewBox="0 0 64 62">
    <g fill="none" fill-rule="evenodd">
        <g fill="#000" fill-rule="nonzero" stroke="#000" stroke-width=".5">
            <g>
                <g>
                    <g>
                        <g>
                            <path d="M57.052 38.075c1.342 0 2.43-1.088 2.43-2.43s-1.088-2.43-2.43-2.43-2.43 1.088-2.43 2.43c.005 1.34 1.09 2.425 2.43 2.43zm0-2.94c.282 0 .51.228.51.51 0 .282-.228.51-.51.51-.282 0-.51-.228-.51-.51 0-.282.228-.51.51-.51h0zM34.242 33.795c0 1.338 1.082 2.424 2.42 2.43 1.338.005 2.429-1.072 2.44-2.41.01-1.338-1.062-2.433-2.4-2.45-.649-.005-1.273.248-1.735.704-.461.456-.722 1.077-.725 1.726zm2.94 0c.04.203-.045.41-.216.524-.172.115-.396.115-.568 0-.171-.114-.257-.321-.216-.524.048-.238.257-.41.5-.41s.452.172.5.41zM46.002 28.735h.81v.81c.124.427.515.72.96.72.444 0 .835-.293.96-.72v-.81h.81c.409.12.848-.033 1.095-.38s.247-.813 0-1.16-.686-.5-1.095-.38h-.84v-.81c.12-.409-.034-.848-.38-1.095-.347-.247-.813-.247-1.16 0s-.5.686-.38 1.095v.81h-.78c-.427.124-.72.516-.72.96 0 .444.293.836.72.96z" transform="translate(-1138 -3267) translate(0 2766) translate(135 462) translate(900) translate(103.298 40)"/>
                            <path d="M63.292 50.095c-.81-3.37-5.73-6.73-13.19-9-.188-1.86-1.499-3.412-3.3-3.91-1.802-.498-3.724.161-4.84 1.66-5.164-1.226-10.444-1.896-15.75-2v-18l18.23-8.43c.318-.176.516-.511.516-.875s-.198-.699-.516-.875L25.612.075c-.481-.197-1.033.007-1.27.47-.091.19-.109.407-.05.61v16.76c-.028.135-.028.275 0 .41v18.45c-2.642.037-5.276.309-7.87.81-9.04 1.78-16.56 7.71-16.42 12.96.09 3.09 2.64 7.13 14.27 8.74 2.51.36 5.043.547 7.58.56 5.87.049 11.665-1.323 16.89-4 4.21-1.93 7.54-3.45 13.31-1.74 4.6 1.36 8.44 1.14 10.27-.6.937-.865 1.312-2.181.97-3.41zm-17.7-11.18c1.426 0 2.592 1.135 2.63 2.56h0c-.035.145-.035.295 0 .44-.15 1.003-.86 1.832-1.829 2.133-.969.3-2.024.02-2.715-.723-.69-.743-.895-1.815-.526-2.76.125-.116.215-.265.26-.43v-.07c.492-.72 1.308-1.15 2.18-1.15h0zm-20.34 10c.552 0 1-.448 1-1v-.6c1.796-.024 3.579.316 5.24 1-.75.43-3 1-6.44 1-3.44 0-5.7-.6-6.45-1 1.82-.725 3.771-1.065 5.73-1v.66c.028.5.421.9.92.94zm1-32.31V2.455l15.45 7.09-15.45 7.06zm34.75 35.48c-1 .93-3.77 1.53-8.4.16-6.47-1.91-10.26-.18-14.66 1.83-5.15 2.36-11 5-23.4 3.31-8-1.12-12.52-3.57-12.62-6.9-.12-4.29 6.83-9.44 14.87-11 2.473-.474 4.982-.732 7.5-.77v6.68c-2.28.06-7.85.46-7.85 2.94 0 2.81 7.13 3 8.57 3 1.44 0 8.56-.14 8.56-3 0-2.32-4.86-2.82-7.36-2.92v-6.73c5.022.109 10.02.742 14.91 1.89-.067.33-.1.664-.1 1-.01 2.238 1.607 4.151 3.816 4.512 2.208.361 4.352-.937 5.054-3.062 7.73 2.46 11.05 5.57 11.53 7.55.157.542-.005 1.127-.42 1.51h0z" transform="translate(-1138 -3267) translate(0 2766) translate(135 462) translate(900) translate(103.298 40)"/>
                        </g>
                    </g>
                </g>
            </g>
        </g>
    </g>
</svg>
