<?xml version="1.0" encoding="utf-8"?>
<svg width="232px" height="55px" viewbox="0 0 232 55" version="1.1" xmlns:xlink="http://www.w3.org/1999/xlink" xmlns="http://www.w3.org/2000/svg">
  <defs>
    <path d="M0 0L232 0L232 55L0 55L0 0Z" id="path_1" />
    <clipPath id="mask_1">
      <use xlink:href="#path_1" />
    </clipPath>
  </defs>
  <g id="hh_clr_rgb_reg_cs5">
    <g id="Group-3">
      <path d="M0 0L232 0L232 55L0 55L0 0Z" id="Clip-2" fill="none" fill-rule="evenodd" stroke="none" />
      <g clip-path="url(#mask_1)">
        <path d="M118.582 10.3884L118.582 0L0 0L0 44.6116L118.582 44.6116L118.582 55.0011L232 55.0011L232 10.3884L118.582 10.3884" id="Fill-1" fill="#642C5B" fill-rule="evenodd" stroke="none" />
      </g>
    </g>
    <path d="M0 0L3.24127 0L3.24127 7.6743L11.7577 7.6743L11.7577 0L15 0L15 19L11.7577 19L11.7577 10.5731L3.24127 10.5731L3.24127 19L0 19L0 0" transform="translate(16 18)" id="Fill-4" fill="#FFFFFE" fill-rule="evenodd" stroke="none" />
    <path d="M3.60109 9.94623C3.60109 10.9678 3.75355 11.9045 4.06056 12.7551C4.36757 13.6068 4.80496 14.3456 5.37483 14.9726C5.94364 15.6006 6.61865 16.0878 7.39775 16.4383C8.1779 16.7878 9.04111 16.962 9.98738 16.962C10.9337 16.962 11.8 16.7878 12.5886 16.4383C13.3771 16.0878 14.0564 15.6006 14.6262 14.9726C15.195 14.3456 15.6324 13.6068 15.9394 12.7551C16.2465 11.9045 16.4 10.9678 16.4 9.94623C16.4 8.9601 16.2465 8.0471 15.9394 7.204C15.6324 6.36197 15.1992 5.62749 14.6388 5.00054C14.0784 4.37359 13.4034 3.88106 12.6149 3.52188C11.8263 3.16378 10.9505 2.98419 9.98738 2.98419C9.02324 2.98419 8.15161 3.16378 7.37146 3.52188C6.59237 3.88106 5.92262 4.37359 5.36116 5.00054C4.80076 5.62749 4.36757 6.36197 4.06056 7.204C3.75355 8.0471 3.60109 8.9601 3.60109 9.94623ZM0 9.94623C0 8.42241 0.250237 7.04807 0.749658 5.81891C1.24803 4.59297 1.93986 3.54877 2.82515 2.68846C3.71044 1.82708 4.76185 1.16464 5.97939 0.699C7.19693 0.233358 8.52382 0 9.9611 0C11.4152 0 12.7558 0.233358 13.9817 0.699C15.2087 1.16464 16.2685 1.82708 17.1622 2.68846C18.0559 3.54877 18.752 4.59297 19.2514 5.81891C19.7508 7.04807 20 8.42241 20 9.94623C20 11.4335 19.7508 12.7917 19.2514 14.0187C18.752 15.2457 18.0559 16.3028 17.1622 17.1911C16.2685 18.0772 15.2087 18.7687 13.9817 19.2612C12.7558 19.7537 11.4152 20 9.9611 20C8.52382 20 7.19693 19.7537 5.97939 19.2612C4.76185 18.7687 3.71044 18.0772 2.82515 17.1911C1.93986 16.3028 1.24803 15.2457 0.749658 14.0187C0.250237 12.7917 0 11.4335 0 9.94623L0 9.94623Z" transform="translate(34 18)" id="Fill-5" fill="#FFFFFE" fill-rule="evenodd" stroke="none" />
    <path d="M0 0L4.54917 0L13.5124 14.2234L13.5669 14.2234L13.5669 0L17 0L17 19L12.6405 19L3.48654 4.32028L3.43204 4.32028L3.43204 19L0 19L0 0" transform="translate(57 18)" id="Fill-6" fill="#FFFFFE" fill-rule="evenodd" stroke="none" />
    <path d="M3.60109 9.94623C3.60109 10.9678 3.75355 11.9045 4.06056 12.7551C4.36757 13.6068 4.80496 14.3456 5.37483 14.9726C5.94364 15.6006 6.61865 16.0878 7.39775 16.4383C8.1779 16.7878 9.04111 16.962 9.98738 16.962C10.9337 16.962 11.8 16.7878 12.5886 16.4383C13.3771 16.0878 14.0564 15.6006 14.6262 14.9726C15.195 14.3456 15.6324 13.6068 15.9394 12.7551C16.2465 11.9045 16.4 10.9678 16.4 9.94623C16.4 8.9601 16.2465 8.0471 15.9394 7.204C15.6324 6.36197 15.1992 5.62749 14.6388 5.00054C14.0774 4.37359 13.4034 3.88106 12.6149 3.52188C11.8263 3.16378 10.9505 2.98419 9.98738 2.98419C9.02324 2.98419 8.15161 3.16378 7.37252 3.52188C6.59237 3.88106 5.92262 4.37359 5.36116 5.00054C4.80076 5.62749 4.36757 6.36197 4.06056 7.204C3.75355 8.0471 3.60109 8.9601 3.60109 9.94623ZM0 9.94623C0 8.42241 0.250237 7.04807 0.749658 5.81891C1.24803 4.59297 1.94091 3.54877 2.82515 2.68846C3.71044 1.82708 4.76185 1.16464 5.97939 0.699C7.19693 0.233358 8.52382 0 9.9611 0C11.4152 0 12.7558 0.233358 13.9817 0.699C15.2087 1.16464 16.2685 1.82708 17.1622 2.68846C18.0559 3.54877 18.752 4.59297 19.2514 5.81891C19.7508 7.04807 20 8.42241 20 9.94623C20 11.4335 19.7508 12.7917 19.2514 14.0187C18.752 15.2457 18.0559 16.3028 17.1622 17.1911C16.2685 18.0772 15.2087 18.7687 13.9817 19.2612C12.7558 19.7537 11.4152 20 9.9611 20C8.52382 20 7.19693 19.7537 5.97939 19.2612C4.76185 18.7687 3.71044 18.0772 2.82515 17.1911C1.94091 16.3028 1.24803 15.2457 0.749658 14.0187C0.250237 12.7917 0 11.4335 0 9.94623L0 9.94623Z" transform="translate(78 18)" id="Fill-7" fill="#FFFFFE" fill-rule="evenodd" stroke="none" />
    <path d="M6.43242 8.18427C6.93812 8.18427 7.44381 8.14884 7.94951 8.07691C8.4552 8.00497 8.9092 7.87184 9.31151 7.67429C9.71381 7.47782 10.0464 7.19653 10.3083 6.82935C10.5712 6.46217 10.7016 5.99192 10.7016 5.41968C10.7016 4.90111 10.5802 4.47596 10.3375 4.14528C10.0925 3.8146 9.78461 3.55049 9.4104 3.35294C9.03506 3.15754 8.60915 3.02334 8.13156 2.95033C7.65396 2.87947 7.19096 2.84404 6.74146 2.84404L3.53873 2.84404L3.53873 8.18427L6.43242 8.18427ZM0 0L6.91002 0C7.84612 0 8.75412 0.092332 9.63515 0.280217C10.5139 0.469176 11.2961 0.777307 11.9804 1.20568C12.6637 1.63621 13.211 2.19986 13.6234 2.89772C14.0347 3.59558 14.2415 4.44482 14.2415 5.44759C14.2415 6.82505 13.8347 7.94807 13.0188 8.81449C12.2052 9.68305 11.096 10.2693 9.69134 10.5731L15 19L10.7297 19L6.12339 10.9489L3.53873 10.9489L3.53873 19L0 19L0 0L0 0Z" transform="translate(101 18)" id="Fill-8" fill="#FFFFFE" fill-rule="evenodd" stroke="none" />
    <path d="M0 0L2.03804 0L2.03804 8.23795L12.9631 8.23795L12.9631 0L15 0L15 19L12.9631 19L12.9631 10.0094L2.03804 10.0094L2.03804 19L0 19L0 0" transform="translate(118 18)" id="Fill-9" fill="#FFFFFE" fill-rule="evenodd" stroke="none" />
    <path d="M1.91502 17.2822L12 17.2822L12 19L0 19L0 0L11.6807 0L11.6807 1.71673L1.91502 1.71673L1.91502 8.23795L11.042 8.23795L11.042 9.95576L1.91502 9.95576L1.91502 17.2822" transform="translate(139 18)" id="Fill-10" fill="#FFFFFE" fill-rule="evenodd" stroke="none" />
    <path d="M5.11384 12.2372L13.8314 12.2372L9.47317 2.14511L5.11384 12.2372ZM2.20873 19L0 19L8.54989 0L10.506 0L19 19L16.7644 19L14.5859 14.0076L4.35934 14.0076L2.20873 19L2.20873 19Z" transform="translate(154 18)" id="Fill-11" fill="#FFFFFE" fill-rule="evenodd" stroke="none" />
    <path d="M1.96945 17.2822L11 17.2822L11 19L0 19L0 0L1.96945 0L1.96945 17.2822" transform="translate(175 18)" id="Fill-12" fill="#FFFFFE" fill-rule="evenodd" stroke="none" />
    <path d="M8.48916 19L6.51084 19L6.51084 1.71673L0 1.71673L0 0L15 0L15 1.71673L8.48916 1.71673L8.48916 19" transform="translate(185 18)" id="Fill-13" fill="#FFFFFE" fill-rule="evenodd" stroke="none" />
    <path d="M0 0L2.03804 0L2.03804 8.23795L12.962 8.23795L12.962 0L15 0L15 19L12.962 19L12.962 10.0094L2.03804 10.0094L2.03804 19L0 19L0 0" transform="translate(203 18)" id="Fill-14" fill="#FFFFFE" fill-rule="evenodd" stroke="none" />
    <path d="M2.43462 2.3352C2.57979 2.3352 2.71941 2.30615 2.85129 2.25028C2.98316 2.19441 3.04965 2.07933 3.04965 1.90838C3.04965 1.75196 2.98759 1.64804 2.86791 1.59553C2.74712 1.54302 2.62079 1.5162 2.48892 1.5162L2.02903 1.5162L2.02903 2.3352L2.43462 2.3352ZM1.52482 1.08492L2.51108 1.08492C2.64295 1.08492 2.77039 1.10056 2.89561 1.12961C3.01862 1.15866 3.13054 1.2067 3.23027 1.27374C3.3289 1.33966 3.40647 1.42346 3.46631 1.52626C3.52283 1.63017 3.55386 1.75866 3.55386 1.91397C3.55386 2.12179 3.49402 2.28827 3.37766 2.41788C3.2602 2.54637 3.10395 2.63352 2.90669 2.67709L3.66246 3.91508L3.04965 3.91508L2.3914 2.73184L2.02903 2.73184L2.02903 3.91508L1.52482 3.91508L1.52482 1.08492ZM0.394504 2.5162C0.394504 2.80447 0.449911 3.07598 0.558511 3.33408C0.668218 3.58994 0.817819 3.81564 1.00842 4.01117C1.19902 4.2067 1.42176 4.35978 1.67775 4.46927C1.93373 4.57989 2.20855 4.63575 2.5 4.63575C2.79255 4.63575 3.06627 4.57989 3.32336 4.46927C3.57824 4.35978 3.80098 4.2067 3.99158 4.01117C4.18107 3.81564 4.33178 3.58994 4.44149 3.33408C4.5512 3.07598 4.6066 2.80447 4.6066 2.5162C4.6066 2.22346 4.5512 1.94637 4.44149 1.68939C4.33178 1.4324 4.18107 1.20782 3.99158 1.01676C3.80098 0.825698 3.57824 0.675978 3.32336 0.565363C3.06627 0.453631 2.79255 0.398883 2.5 0.398883C2.20855 0.398883 1.93373 0.453631 1.67775 0.565363C1.42176 0.675978 1.19902 0.825698 1.00842 1.01676C0.817819 1.20782 0.668218 1.4324 0.558511 1.68939C0.449911 1.94637 0.394504 2.22346 0.394504 2.5162ZM0 2.51173C0 2.16536 0.064273 1.83911 0.197252 1.53184C0.329122 1.22682 0.507535 0.962011 0.734707 0.736313C0.960771 0.511732 1.22562 0.334078 1.53036 0.2C1.83289 0.0670391 2.15647 0 2.5 0C2.84353 0 3.16711 0.0670391 3.47185 0.2C3.77438 0.334078 4.03923 0.511732 4.2664 0.736313C4.49246 0.962011 4.67199 1.22682 4.80386 1.53184C4.93462 1.83911 5 2.16536 5 2.51173C5 2.8581 4.93462 3.18324 4.80386 3.48492C4.67199 3.78771 4.49246 4.05028 4.2664 4.27486C4.03923 4.49944 3.77438 4.67709 3.47185 4.8067C3.16711 4.9352 2.84353 5 2.5 5C2.15647 5 1.83289 4.9352 1.53036 4.8067C1.22562 4.67709 0.960771 4.49944 0.734707 4.27486C0.507535 4.05028 0.329122 3.78771 0.197252 3.48492C0.064273 3.18324 0 2.8581 0 2.51173L0 2.51173Z" transform="translate(221 18)" id="Fill-15" fill="#FFFFFE" fill-rule="evenodd" stroke="none" />
  </g>
</svg>