<svg id="hh_out_rev_wh_cmyk_reg" xmlns="http://www.w3.org/2000/svg" width="300" height="71.001" viewBox="0 0 300 71.001">
  <path id="Fill_1" data-name="Fill 1" d="M300,71H153.339V57.588H0V0H155.839V13.412H300V71ZM2.5,2.5V55.085H155.839V68.5H297.5V15.914H153.339V2.5Z" transform="translate(0 0)" fill="#fffffe"/>
  <path id="Fill_2" data-name="Fill 2" d="M0,0H4.322V10.1H15.677V0H20V25H15.677V13.913H4.322V25H0V0" transform="translate(20 23)" fill="#fffffe"/>
  <path id="Fill_3" data-name="Fill 3" d="M12.949,26a13.747,13.747,0,0,1-5.176-.96,12.247,12.247,0,0,1-4.1-2.692,12.373,12.373,0,0,1-2.7-4.124A13.974,13.974,0,0,1,0,12.931,14.184,14.184,0,0,1,.975,7.565a11.81,11.81,0,0,1,2.7-4.07A11.965,11.965,0,0,1,7.773.907,14.471,14.471,0,0,1,12.949,0a14.706,14.706,0,0,1,5.227.907A12.1,12.1,0,0,1,22.311,3.5a11.728,11.728,0,0,1,2.716,4.07A14.2,14.2,0,0,1,26,12.931a13.991,13.991,0,0,1-.973,5.293,12.283,12.283,0,0,1-2.716,4.124,12.385,12.385,0,0,1-4.135,2.692A13.968,13.968,0,0,1,12.949,26Zm.034-22.122a8.1,8.1,0,0,0-3.4.7A7.947,7.947,0,0,0,6.97,6.5,8.78,8.78,0,0,0,5.279,9.365a10.4,10.4,0,0,0-.6,3.566,10.747,10.747,0,0,0,.6,3.65,8.582,8.582,0,0,0,1.709,2.884,7.861,7.861,0,0,0,2.63,1.9,8.177,8.177,0,0,0,3.366.68,8.3,8.3,0,0,0,3.382-.68,7.814,7.814,0,0,0,2.647-1.9,8.582,8.582,0,0,0,1.709-2.884,10.745,10.745,0,0,0,.6-3.65,10.4,10.4,0,0,0-.6-3.566A8.794,8.794,0,0,0,19.031,6.5,7.893,7.893,0,0,0,16.4,4.577,8.206,8.206,0,0,0,12.983,3.878Z" transform="translate(44 23)" fill="#fffffe"/>
  <path id="Fill_4" data-name="Fill 4" d="M0,0H5.887l11.6,18.715h.071V0H22V25H16.358L4.512,5.685H4.441V25H0V0" transform="translate(74 23)" fill="#fffffe"/>
  <path id="Fill_5" data-name="Fill 5" d="M12.948,26a13.744,13.744,0,0,1-5.175-.96,12.247,12.247,0,0,1-4.1-2.692,12.4,12.4,0,0,1-2.7-4.124A13.974,13.974,0,0,1,0,12.931,14.184,14.184,0,0,1,.975,7.565a11.831,11.831,0,0,1,2.7-4.07A11.965,11.965,0,0,1,7.773.907,14.468,14.468,0,0,1,12.948,0a14.708,14.708,0,0,1,5.228.907A12.1,12.1,0,0,1,22.311,3.5a11.728,11.728,0,0,1,2.716,4.07A14.2,14.2,0,0,1,26,12.931a13.991,13.991,0,0,1-.973,5.293,12.283,12.283,0,0,1-2.716,4.124,12.385,12.385,0,0,1-4.135,2.692A13.97,13.97,0,0,1,12.948,26Zm.035-22.122a8.089,8.089,0,0,0-3.4.7A7.942,7.942,0,0,0,6.97,6.5,8.78,8.78,0,0,0,5.279,9.365a10.4,10.4,0,0,0-.6,3.566,10.747,10.747,0,0,0,.6,3.65,8.582,8.582,0,0,0,1.709,2.884,7.861,7.861,0,0,0,2.63,1.9,8.177,8.177,0,0,0,3.366.68,8.3,8.3,0,0,0,3.382-.68,7.814,7.814,0,0,0,2.647-1.9,8.582,8.582,0,0,0,1.709-2.884,10.745,10.745,0,0,0,.6-3.65,10.4,10.4,0,0,0-.6-3.566A8.794,8.794,0,0,0,19.031,6.5,7.893,7.893,0,0,0,16.4,4.577,8.206,8.206,0,0,0,12.983,3.878Z" transform="translate(100 23)" fill="#fffffe"/>
  <path id="Fill_6" data-name="Fill 6" d="M4.482,25H0V0H8.752A16.028,16.028,0,0,1,12.2.37a8.979,8.979,0,0,1,2.97,1.218,6.431,6.431,0,0,1,2.082,2.225,6.735,6.735,0,0,1,.783,3.355A6.377,6.377,0,0,1,16.491,11.6a7.835,7.835,0,0,1-4.215,2.314L19,25l-5.408,0L7.756,14.406H4.482V25Zm0-21.259V10.77H8.148a12.973,12.973,0,0,0,1.922-.143,5.553,5.553,0,0,0,1.725-.529,3.359,3.359,0,0,0,1.263-1.112,3.207,3.207,0,0,0,.5-1.853,2.847,2.847,0,0,0-.464-1.679,3.469,3.469,0,0,0-1.173-1.04,4.972,4.972,0,0,0-1.62-.53,11.566,11.566,0,0,0-1.76-.141Z" transform="translate(129 23)" fill="#fffffe"/>
  <path id="Fill_7" data-name="Fill 7" d="M0,0H2.446V10.841h13.11V0H18V25H15.556V13.17H2.446V25H0V0" transform="translate(154 23)" fill="#fffffe"/>
  <path id="Fill_8" data-name="Fill 8" d="M2.553,22.741H16V25H0V0H15.574V2.259H2.553v8.582H14.723V13.1H2.553v9.641" transform="translate(179 23)" fill="#fffffe"/>
  <path id="Fill_9" data-name="Fill 9" d="M2.79,25H0L10.8,0h2.47L24,25H21.176l-2.752-6.567H5.506L2.79,25ZM11.966,2.824,6.459,16.1H17.471Z" transform="translate(199 23)" fill="#fffffe"/>
  <path id="Fill_10" data-name="Fill 10" d="M2.507,22.741H14V25H0V0H2.507V22.741" transform="translate(226 23)" fill="#fffffe"/>
  <path id="Fill_11" data-name="Fill 11" d="M10.753,25H8.247V2.259H0V0H19V2.259H10.753V25" transform="translate(239 23)" fill="#fffffe"/>
  <path id="Fill_12" data-name="Fill 12" d="M0,0H2.446V10.841H15.554V0H18V25H15.554V13.17H2.446V25H0V0" transform="translate(263 23)" fill="#fffffe"/>
  <path id="Fill_13" data-name="Fill 13" d="M3,6a2.938,2.938,0,0,1-1.164-.232,3.018,3.018,0,0,1-.954-.637,3.055,3.055,0,0,1-.645-.948A2.892,2.892,0,0,1,0,3.015,2.935,2.935,0,0,1,.237,1.84,3.014,3.014,0,0,1,.882.885,3.1,3.1,0,0,1,1.836.24a2.944,2.944,0,0,1,2.33,0A3.143,3.143,0,0,1,5.12.885a3.039,3.039,0,0,1,.644.955A2.978,2.978,0,0,1,6,3.015a2.935,2.935,0,0,1-.236,1.168,3.08,3.08,0,0,1-.644.948,3.058,3.058,0,0,1-.954.637A2.958,2.958,0,0,1,3,6ZM3,.48a2.462,2.462,0,0,0-.986.2A2.53,2.53,0,0,0,.473,3.02,2.509,2.509,0,0,0,.67,4a2.614,2.614,0,0,0,.54.813A2.487,2.487,0,0,0,3,5.563a2.482,2.482,0,0,0,1.79-.75A2.641,2.641,0,0,0,5.33,4a2.5,2.5,0,0,0,.2-.98,2.526,2.526,0,0,0-.2-.993A2.529,2.529,0,0,0,3.988.679,2.479,2.479,0,0,0,3,.48ZM2.434,4.7h-.6V1.3H3.013a2,2,0,0,1,.462.053,1.269,1.269,0,0,1,.4.173.925.925,0,0,1,.284.3.964.964,0,0,1,.1.464.869.869,0,0,1-.211.606,1.037,1.037,0,0,1-.565.31L4.394,4.7l-.734,0L2.87,3.28H2.434V4.7Zm0-2.879V2.8h.487a1.27,1.27,0,0,0,.5-.1.4.4,0,0,0,.238-.409.373.373,0,0,0-.218-.377,1.133,1.133,0,0,0-.455-.094Z" transform="translate(285 23)" fill="#fffffe"/>
</svg>
